<svg xmlns="http://www.w3.org/2000/svg" viewBox="0 0 1920 1080" role="img" aria-label="Abstract supernova background">
  <defs>
    <radialGradient id="core" cx="52%" cy="44%" r="22%">
      <stop offset="0%" stop-color="#fff3c6" />
      <stop offset="28%" stop-color="#ffc87f" />
      <stop offset="56%" stop-color="#ff7f50" />
      <stop offset="100%" stop-color="#1f2d4d" stop-opacity="0" />
    </radialGradient>
    <radialGradient id="halo" cx="58%" cy="46%" r="45%">
      <stop offset="0%" stop-color="#ffd89f" stop-opacity="0.18" />
      <stop offset="100%" stop-color="#101a33" stop-opacity="0" />
    </radialGradient>
    <linearGradient id="bg" x1="0%" y1="0%" x2="100%" y2="100%">
      <stop offset="0%" stop-color="#060d1f" />
      <stop offset="55%" stop-color="#0b1838" />
      <stop offset="100%" stop-color="#111f4d" />
    </linearGradient>
  </defs>

  <rect width="1920" height="1080" fill="url(#bg)" />
  <circle cx="1080" cy="490" r="520" fill="url(#halo)" />
  <circle cx="1000" cy="500" r="340" fill="url(#core)" />

  <g fill="#e8f0ff" opacity="0.9">
    <circle cx="140" cy="180" r="1.2" />
    <circle cx="380" cy="90" r="1.6" />
    <circle cx="510" cy="260" r="1.3" />
    <circle cx="690" cy="180" r="1.8" />
    <circle cx="810" cy="110" r="1.2" />
    <circle cx="930" cy="210" r="1.4" />
    <circle cx="1200" cy="150" r="1.6" />
    <circle cx="1430" cy="240" r="1.3" />
    <circle cx="1660" cy="120" r="1.8" />
    <circle cx="1740" cy="340" r="1.2" />
    <circle cx="150" cy="430" r="1.4" />
    <circle cx="300" cy="540" r="1.7" />
    <circle cx="520" cy="660" r="1.2" />
    <circle cx="760" cy="800" r="1.6" />
    <circle cx="970" cy="920" r="1.4" />
    <circle cx="1200" cy="850" r="1.8" />
    <circle cx="1500" cy="920" r="1.2" />
    <circle cx="1700" cy="760" r="1.5" />
    <circle cx="1820" cy="910" r="1.3" />
  </g>

  <g stroke="#ffbf7f" stroke-opacity="0.22" fill="none">
    <path d="M700 360 C860 420, 1040 400, 1220 540" stroke-width="3.2" />
    <path d="M780 630 C920 550, 1120 620, 1320 480" stroke-width="2.4" />
    <path d="M620 520 C820 500, 980 680, 1180 700" stroke-width="1.9" />
  </g>
</svg>
